# xmcd CD database file
#
# Track frame offsets:
#	150
#	5467
#	21715
#	50235
#	75493
#	141524
#
# Disc length: 2146 seconds
#
# Revision: 1
# Processed by: cddbd v1.5.1PL0 Copyright (c) Steve Scherf et al.
# Submitted via: CDex 1.51
#
DISCID=51086006
DTITLE=Devadip Carlos Santana/Turiya Alice Coltrane - Illuminations
DYEAR=1974
DGENRE=Jazz
TTITLE0=Guru Sri Chinmoy Aphorism
TTITLE1=Angel Of Air
TTITLE2=Angel Of Water
TTITLE3=Bliss: The Eternal Now
TTITLE4=Angel Of Sunlight
TTITLE5=Illuminations
EXTD=YEAR: 1974
EXTT0=
EXTT1=
EXTT2=
EXTT3=
EXTT4=
EXTT5=
PLAYORDER=
